<svg width="1240" height="148" viewBox="0 0 1240 148" fill="none" xmlns="http://www.w3.org/2000/svg">
<g clip-path="url(#clip0_1774_64154)">
<rect width="1240" height="148" fill="url(#paint0_radial_1774_64154)"/>
<g style="mix-blend-mode:overlay" opacity="0.16">
<path d="M1223.93 59.2817L1172.01 54.4119C1170.87 53.5303 1169.43 52.9999 1167.87 52.9999C1167.09 52.9999 1166.34 53.1376 1165.63 53.3856C1165.03 47.3104 1159.9 42.5646 1153.66 42.5646C1151 42.5646 1148.56 43.4394 1146.56 44.8996C1144.2 37.1714 1137.03 31.5508 1128.53 31.5508C1120.77 31.5508 1114.1 36.2484 1111.21 42.9572C1110.25 42.7162 1109.26 42.5715 1108.24 42.5715C1102.1 42.5715 1097.04 47.1727 1096.31 53.1101C1095.94 53.0481 1095.57 53.0137 1095.19 53.0137C1093.45 53.0137 1091.86 53.6749 1090.66 54.7494L1043 59.3919H1174.66C1174.66 59.3919 1174.66 59.3299 1174.65 59.2955H1223.93V59.2817Z" fill="white"/>
</g>
<g style="mix-blend-mode:overlay" opacity="0.32">
<path d="M1053.49 40.2952L1008.02 36.0264C1007.01 35.2559 1005.76 34.7935 1004.39 34.7935C1003.7 34.7935 1003.05 34.9168 1002.43 35.1326C1001.9 29.8081 997.405 25.6549 991.942 25.6549C989.615 25.6549 987.465 26.4177 985.724 27.6968C983.666 20.9315 977.371 16 969.928 16C963.124 16 957.291 20.1147 954.756 25.9862C953.923 25.7705 953.053 25.6472 952.143 25.6472C946.765 25.6472 942.342 29.6771 941.695 34.8783C941.379 34.8244 941.048 34.7935 940.716 34.7935C939.191 34.7935 937.804 35.3714 936.748 36.3115L895 40.38H1010.33C1010.33 40.38 1010.33 40.326 1010.32 40.2952H1053.48H1053.49Z" fill="white"/>
</g>
<path d="M1067.77 208.818C1111.99 208.818 1147.84 172.966 1147.84 128.74C1147.84 84.5141 1111.99 48.662 1067.77 48.662C1023.54 48.662 987.688 84.5141 987.688 128.74C987.688 172.966 1023.54 208.818 1067.77 208.818Z" fill="url(#paint1_linear_1774_64154)" style="mix-blend-mode:overlay"/>
<path d="M1002.03 81.666C999.976 80.3126 995.581 81.6454 994.214 80.8868C994.214 80.8252 994.227 80.7706 994.241 80.7091C994.556 79.5198 995.157 78.2895 995.307 78.2553C994.508 78.4194 993.763 78.2553 993.148 77.8521C992.614 77.3394 992.293 76.6491 992.286 75.8289C992.286 75.9793 991.213 76.8405 990.12 77.401C990.065 77.4283 990.003 77.442 989.949 77.4625C988.91 76.2937 989.265 71.7143 987.502 70.0056C985.896 68.454 982.492 67.1691 980.496 68.3105C981.426 68.9666 982.376 70.3131 982.697 71.8715C983.039 73.5666 982.219 74.5234 981.104 75.3641C982.998 76.5944 985.171 79.3831 983.367 82.3494C985.274 83.3542 985.739 85.9173 985.513 87.3048C985.465 87.3389 985.533 87.3936 985.561 87.3389C986.866 86.8195 989.47 86.717 990.865 88.3642C993.366 85.9583 996.565 87.4825 998.171 89.0682C998.752 87.8037 999.511 86.7921 1001.24 86.7648C1002.83 86.7375 1004.35 87.3731 1005.2 88.1386C1005.87 85.9446 1003.89 82.8962 1002.03 81.666Z" fill="#8537FB"/>
<path d="M1164.41 67.9083C1162.28 69.1386 1161.52 73.6702 1160.22 74.5519C1160.18 74.5177 1160.12 74.4904 1160.07 74.4494C1159.15 73.636 1158.32 72.5492 1158.35 72.3989C1158.15 73.1917 1157.67 73.7864 1157.02 74.1555C1156.33 74.4015 1155.57 74.381 1154.83 74.0256C1154.97 74.0939 1155.26 75.4336 1155.28 76.6639C1155.28 76.7254 1155.26 76.7869 1155.25 76.8416C1153.74 77.2448 1149.81 74.8936 1147.49 75.707C1145.39 76.452 1142.72 78.9262 1142.85 81.2228C1143.85 80.6828 1145.48 80.4299 1147.02 80.8469C1148.69 81.298 1149.18 82.4599 1149.44 83.8269C1151.38 82.6786 1154.85 81.9746 1156.7 84.9136C1158.45 83.656 1160.95 84.3805 1162.09 85.2007C1162.1 85.2554 1162.18 85.2212 1162.14 85.1734C1162.26 83.7722 1163.33 81.4005 1165.43 80.881C1164.39 77.5729 1167.17 75.3857 1169.31 74.6544C1168.44 73.5745 1167.87 72.4399 1168.62 70.8815C1169.3 69.4394 1170.55 68.3663 1171.61 67.9562C1169.95 66.3705 1166.34 66.7874 1164.41 67.9083Z" fill="#6914E8"/>
<path opacity="0.48" d="M1001.67 33.412C998.949 33.9283 996.444 38.4668 994.741 38.9214C994.703 38.8675 994.657 38.8135 994.618 38.7596C993.932 37.5499 993.455 36.0781 993.555 35.9394C993.038 36.7023 992.306 37.1569 991.49 37.311C990.657 37.311 989.856 37.0105 989.201 36.3555C989.324 36.4788 989.132 38.0122 988.693 39.3298C988.662 39.3992 988.639 39.4531 988.608 39.5147C986.851 39.3837 983.538 35.4077 980.764 35.4154C978.244 35.4232 974.492 37.0644 973.775 39.5533C975.046 39.3529 976.865 39.692 978.352 40.7014C979.962 41.8032 980.055 43.221 979.816 44.7698C982.313 44.2767 986.265 44.8161 987.136 48.6303C989.471 47.9445 991.86 49.6474 992.769 50.9419C992.769 51.0035 992.854 50.9958 992.838 50.9419C993.485 49.4933 995.512 47.3666 997.931 47.5977C998.062 43.6911 1001.84 42.4043 1004.39 42.4197C1003.86 40.9402 1003.68 39.5301 1005.05 38.1432C1006.31 36.8641 1008.04 36.186 1009.33 36.1475C1008.15 33.8435 1004.15 32.942 1001.68 33.412H1001.67Z" fill="#B687FD"/>
<path d="M1093.61 35.8733C1091.73 37.9075 1092.41 43.0393 1091.32 44.4186C1091.25 44.4032 1091.19 44.3801 1091.12 44.3569C1089.86 43.7944 1088.6 42.8929 1088.59 42.7234C1088.63 43.648 1088.31 44.4417 1087.74 45.0504C1087.07 45.5513 1086.25 45.7747 1085.33 45.636C1085.5 45.6592 1086.25 47.0076 1086.69 48.3329C1086.7 48.4023 1086.72 48.4639 1086.72 48.5333C1085.24 49.4733 1080.21 48.2405 1077.98 49.8971C1075.96 51.3997 1073.91 54.9519 1074.81 57.3791C1075.71 56.4622 1077.39 55.6531 1079.18 55.5837C1081.13 55.5144 1082.05 56.6009 1082.77 57.9878C1084.48 56.1077 1087.99 54.1968 1090.95 56.7473C1092.43 54.8055 1095.35 54.7593 1096.86 55.2601C1096.9 55.3141 1096.96 55.2601 1096.91 55.2139C1096.57 53.6651 1096.93 50.7524 1099.02 49.5042C1096.8 46.2833 1099.08 43.0008 1101.14 41.5059C1099.84 40.6275 1098.85 39.6027 1099.14 37.6763C1099.4 35.8964 1100.38 34.3245 1101.39 33.5308C1099.08 32.375 1095.32 34.024 1093.6 35.8733H1093.61Z" fill="#8537FB"/>
</g>
<defs>
<radialGradient id="paint0_radial_1774_64154" cx="0" cy="0" r="1" gradientUnits="userSpaceOnUse" gradientTransform="translate(620 74) scale(818.486 97.6903)">
<stop stop-color="#290264"/>
<stop offset="1" stop-color="#210250"/>
</radialGradient>
<linearGradient id="paint1_linear_1774_64154" x1="1067.77" y1="63.9769" x2="1067.77" y2="177.137" gradientUnits="userSpaceOnUse">
<stop stop-color="white"/>
<stop offset="0.09" stop-color="white" stop-opacity="0.97"/>
<stop offset="0.22" stop-color="white" stop-opacity="0.9"/>
<stop offset="0.36" stop-color="white" stop-opacity="0.79"/>
<stop offset="0.53" stop-color="white" stop-opacity="0.62"/>
<stop offset="0.7" stop-color="white" stop-opacity="0.41"/>
<stop offset="0.89" stop-color="white" stop-opacity="0.16"/>
<stop offset="1" stop-color="white" stop-opacity="0"/>
</linearGradient>
<clipPath id="clip0_1774_64154">
<rect width="1240" height="148" fill="white"/>
</clipPath>
</defs>
</svg>
