<svg width="64" height="64" viewBox="0 0 64 64" fill="none" xmlns="http://www.w3.org/2000/svg">
<g clip-path="url(#clip0_122_24241)">
<path fill-rule="evenodd" clip-rule="evenodd" d="M59.968 32.384L57.408 28.864C60.672 22.656 62.848 13.696 52.608 14.656C52.224 11.392 49.664 5.44001 46.464 4.03201C42.624 2.36801 39.104 5.44001 36.352 7.68001C35.072 6.14401 32.32 3.13601 30.144 2.94401C25.664 -1.15199 21.312 5.18401 19.584 8.76801C9.59998 6.40001 5.05598 12.416 8.95998 21.824C6.01598 22.912 0.383982 25.472 1.91998 29.504C2.04798 30.144 2.23998 30.784 2.55998 31.36C3.26398 32.896 4.41598 34.176 5.88798 35.072C6.97598 36.16 8.19198 37.248 9.27998 38.144C9.02398 39.104 8.38398 40.192 8.31998 41.28C7.48798 43.52 6.71998 45.76 5.88798 48L16.064 48.576C16.384 48.896 16.64 49.216 17.024 49.536C16.768 52.736 13.568 59.712 18.88 60.48C20.48 60.736 21.248 59.904 22.4 59.008C23.424 58.176 24.512 57.408 25.664 56.768C26.752 56.128 27.904 55.68 29.056 55.36L36.928 61.568C37.888 60.416 38.848 59.328 39.808 58.176C41.152 57.152 42.048 55.68 42.368 54.016C42.368 54.016 42.432 54.016 42.432 53.952C45.184 54.144 48.384 56.64 51.008 55.744C51.648 55.552 52.16 55.168 52.608 54.72C54.784 52.608 54.848 48.384 53.12 44.032C55.936 43.392 58.496 42.112 60.672 40.256C61.824 39.232 62.144 38.656 62.272 38.016C62.4 37.568 62.784 36.224 59.968 32.384Z" fill="#E50C00" style="fill:#E50C00;fill:color(display-p3 0.8980 0.0471 0.0000);fill-opacity:1;"/>
<path d="M58.112 32.384C57.28 31.296 56.576 30.208 55.872 29.184C58.112 26.24 59.648 22.784 60.352 19.136C60.416 18.624 60.16 18.176 59.648 18.048C57.664 17.6 55.68 17.152 53.632 16.768C52.096 16.448 50.624 16.128 49.152 15.872C49.216 15.104 49.28 14.208 49.28 13.312C49.28 12.416 49.216 11.52 49.152 10.56C48.96 8.448 48.512 6.336 47.872 4.224C47.744 3.712 47.232 3.456 46.72 3.648C46.72 3.648 46.72 3.648 46.656 3.648C44.544 4.416 42.432 5.44 40.512 6.592C38.976 7.488 37.504 8.512 36.16 9.6C35.136 8.576 34.048 7.616 32.832 6.528C31.104 5.056 29.376 3.712 27.776 2.496C27.392 2.176 26.816 2.304 26.496 2.688C26.496 2.688 26.496 2.688 26.496 2.752C25.28 4.48 24.192 6.336 23.04 8.192C22.336 9.408 21.632 10.56 20.928 11.776C19.392 11.584 17.792 11.392 16.064 11.264C14.016 11.136 12.16 11.072 10.368 11.072H10.176C9.66396 11.072 9.27996 11.456 9.27996 11.968C9.27996 12.032 9.27996 12.032 9.27996 12.096C9.53596 14.08 9.91996 16.192 10.432 18.496C10.816 20.096 11.2 21.632 11.648 23.104C10.368 23.872 9.15196 24.64 7.87196 25.472C6.07996 26.56 4.41596 27.712 2.68796 28.8C2.23996 29.056 2.17596 29.632 2.43196 30.08C2.43196 30.08 2.43196 30.144 2.49596 30.144C3.71196 31.744 4.99196 33.28 6.39996 34.688C7.61596 35.968 8.83196 37.12 9.98396 38.144C9.47196 39.552 8.83196 41.024 8.12796 42.496C7.23196 44.48 6.27196 46.272 5.37596 47.936C5.11996 48.384 5.31196 48.96 5.69596 49.216C5.82396 49.28 6.01596 49.344 6.20796 49.344C6.84796 49.344 7.55196 49.28 8.25596 49.28C9.40796 49.28 10.624 49.344 11.904 49.408C13.44 49.536 14.848 49.728 16.128 49.92C16.384 51.456 16.64 53.056 16.832 54.72C17.088 56.896 17.28 58.944 17.344 60.864C17.344 61.376 17.792 61.76 18.304 61.696C18.432 61.696 18.56 61.632 18.688 61.568C20.48 60.608 22.336 59.584 24.256 58.432C25.92 57.472 27.456 56.512 28.992 55.552C29.888 56.256 30.848 56.96 31.808 57.792C33.6 59.264 35.2 60.8 36.672 62.208C37.056 62.592 37.632 62.592 37.952 62.208L38.016 62.144C40.128 59.712 42.176 57.216 44.288 54.784L54.144 56.512C54.656 56.576 55.104 56.256 55.232 55.744C55.232 55.616 55.232 55.488 55.232 55.36C54.784 53.248 54.464 51.136 54.272 49.024C54.208 47.808 54.144 46.656 54.144 45.568C54.144 45.312 54.144 45.12 54.144 44.864C55.296 44.032 56.512 43.2 57.728 42.176C59.328 40.96 60.736 39.68 62.016 38.528C62.4 38.208 62.4 37.632 62.08 37.248C60.8 35.776 59.456 34.176 58.112 32.384ZM56.576 40.768C55.232 41.792 53.952 42.752 52.672 43.648C52.416 43.84 52.288 44.096 52.288 44.352C52.288 44.736 52.288 45.12 52.288 45.568C52.288 46.72 52.352 47.872 52.416 49.152C52.544 50.944 52.8 52.672 53.12 54.464L44.032 52.864C43.712 52.8 43.392 52.928 43.2 53.184C41.216 55.488 39.232 57.856 37.184 60.16C35.904 58.88 34.496 57.6 32.96 56.32C31.808 55.36 30.656 54.464 29.568 53.632C29.248 53.376 28.864 53.376 28.544 53.568C26.88 54.656 25.152 55.68 23.296 56.768C21.824 57.6 20.416 58.432 19.008 59.2C18.88 57.664 18.752 56.064 18.56 54.336C18.304 52.416 18.048 50.56 17.792 48.832C17.728 48.448 17.408 48.128 17.024 48.064C15.36 47.744 13.632 47.552 11.968 47.424C10.624 47.296 9.34396 47.296 8.12796 47.296C7.93596 47.296 7.80796 47.296 7.61596 47.296C8.31996 46.016 9.02396 44.608 9.66396 43.136C10.496 41.408 11.2 39.68 11.776 38.08C11.904 37.696 11.776 37.312 11.52 37.056C10.176 35.84 8.83196 34.56 7.61596 33.28C6.39996 32 5.37596 30.784 4.41596 29.632C5.82396 28.736 7.23196 27.776 8.70396 26.88C10.176 25.984 11.648 25.088 13.12 24.192C13.504 24 13.632 23.552 13.504 23.168C12.992 21.568 12.544 19.84 12.16 18.048C11.776 16.256 11.456 14.528 11.2 12.864C12.672 12.864 14.272 12.928 15.936 13.056C17.856 13.184 19.648 13.44 21.312 13.632C21.696 13.696 22.08 13.504 22.272 13.184C23.04 11.84 23.808 10.496 24.64 9.088C25.6 7.552 26.496 6.016 27.456 4.544C28.8 5.568 30.208 6.656 31.616 7.872C33.024 9.088 34.304 10.24 35.456 11.392C35.776 11.712 36.352 11.776 36.672 11.456C39.552 9.024 42.88 7.04 46.4 5.632C46.848 7.296 47.168 8.96 47.296 10.624C47.36 11.52 47.424 12.416 47.424 13.248C47.424 14.336 47.36 15.424 47.232 16.448C47.168 16.896 47.488 17.344 48 17.472C49.728 17.792 51.52 18.176 53.312 18.496C55.04 18.88 56.704 19.2 58.368 19.584C57.6 22.848 56.128 25.856 54.016 28.48C53.76 28.8 53.76 29.248 53.952 29.568C54.784 30.784 55.68 32.064 56.64 33.408C57.792 34.944 59.008 36.416 60.16 37.696C59.008 38.784 57.856 39.744 56.576 40.768Z" fill="white" style="fill:white;fill-opacity:1;"/>
<path d="M23.36 39.616C22.336 39.872 19.712 41.472 19.136 39.68C18.496 37.824 21.184 37.312 22.336 37.376C23.744 37.44 23.744 35.2 22.336 35.2C20.544 35.136 18.752 35.584 17.664 37.12C16.704 38.4 16.64 40.128 17.536 41.408C18.496 42.816 20.224 42.944 21.696 42.496C22.272 42.368 22.784 42.048 23.36 41.92C24.32 41.728 26.176 41.92 25.408 43.392C24.704 44.736 22.784 44.672 21.504 44.608C20.096 44.544 20.096 46.72 21.504 46.784C23.36 46.912 25.28 46.656 26.688 45.312C27.84 44.224 28.16 42.496 27.392 41.024C26.56 39.552 24.896 39.232 23.36 39.616Z" fill="white" style="fill:white;fill-opacity:1;"/>
<path d="M30.976 32.384C29.888 31.68 27.712 29.952 26.304 30.784C24.96 31.616 25.6 33.664 26.048 34.816C27.008 37.12 28.16 39.296 29.376 41.472C30.08 42.688 32 41.6 31.296 40.384C30.912 39.744 30.528 39.04 30.208 38.336C30.976 37.632 31.808 36.928 32.64 36.288C33.28 36.8 33.92 37.376 34.56 37.952C35.584 38.912 37.12 37.376 36.096 36.416C34.56 34.88 32.832 33.536 30.976 32.384ZM27.968 33.216C28.8 33.344 30.016 34.304 30.848 34.944C30.272 35.392 29.76 35.84 29.184 36.352C28.928 35.904 28.736 35.456 28.544 34.944C28.288 34.432 28.096 33.92 27.904 33.344C27.584 33.024 27.648 32.96 27.968 33.216Z" fill="white" style="fill:white;fill-opacity:1;"/>
<path d="M41.536 31.936C40.64 32.512 39.744 33.088 38.912 33.728C37.056 31.616 35.328 29.376 33.792 27.008C33.024 25.792 31.104 26.944 31.872 28.096C33.664 30.848 35.712 33.472 37.952 35.904C38.4 36.288 39.104 36.288 39.488 35.904C40.512 35.136 41.536 34.432 42.624 33.792C43.84 33.088 42.752 31.168 41.536 31.936Z" fill="white" style="fill:white;fill-opacity:1;"/>
<path d="M47.3599 26.88C46.3359 27.584 45.3119 28.288 44.3519 29.056L44.2239 29.12C44.1599 29.056 44.0959 28.992 44.0319 28.928C43.9679 28.608 43.3919 28.096 43.1999 27.904C42.9439 27.584 42.6879 27.264 42.4319 27.008L45.1839 24.64C46.2719 23.744 44.6719 22.144 43.6479 23.104L41.0239 25.344C40.4479 24.704 39.8719 24.128 39.2959 23.552C40.1279 22.72 41.0879 22.016 42.1119 21.376C43.3279 20.608 42.2399 18.752 41.0239 19.456C39.5519 20.352 38.2079 21.44 37.0559 22.72C36.9279 22.848 36.7999 23.104 36.7359 23.296C36.6079 23.68 36.6719 24.128 36.9919 24.384C38.1439 25.536 39.2959 26.688 40.3199 27.904C41.2159 28.928 41.9199 30.4 42.9439 31.296C44.6079 32.704 47.1039 29.824 48.3839 28.864C49.5999 27.968 48.5119 26.048 47.3599 26.88Z" fill="white" style="fill:white;fill-opacity:1;"/>
</g>
<defs>
<clipPath id="clip0_122_24241">
<rect width="64" height="64" fill="white" style="fill:white;fill-opacity:1;"/>
</clipPath>
</defs>
</svg>
